<?xml version="1.0" standalone="no"?>
<!DOCTYPE svg PUBLIC "-//W3C//DTD SVG 20010904//EN"
 "http://www.w3.org/TR/2001/REC-SVG-20010904/DTD/svg10.dtd">
<svg version="1.0" xmlns="http://www.w3.org/2000/svg"
 width="512.000000pt" height="512.000000pt" viewBox="0 0 512.000000 512.000000"
 preserveAspectRatio="xMidYMid meet">
<metadata>
Created by potrace 1.11, written by Peter Selinger 2001-2013
</metadata>
<g transform="translate(0.000000,512.000000) scale(0.100000,-0.100000)"
fill="#000000" stroke="none">
<path d="M2356 4512 c-2 -1 -28 -4 -60 -7 -31 -3 -71 -8 -89 -11 -17 -3 -43
-8 -57 -9 -14 -2 -36 -6 -50 -9 -14 -4 -41 -9 -60 -12 -41 -7 -232 -74 -278
-98 -18 -9 -32 -13 -32 -10 0 4 -8 0 -17 -9 -10 -8 -21 -16 -26 -16 -24 -2
-239 -126 -245 -142 -2 -5 -7 -7 -11 -5 -4 3 -22 -8 -40 -24 -18 -17 -36 -30
-41 -30 -4 0 -10 -3 -12 -8 -1 -4 -27 -28 -57 -52 -63 -52 -191 -180 -191
-192 0 -4 -11 -15 -25 -24 -14 -9 -25 -21 -25 -26 0 -5 -13 -23 -30 -41 -16
-18 -30 -35 -30 -39 0 -4 -6 -13 -13 -20 -21 -22 -59 -78 -52 -78 3 0 -5 -15
-18 -32 -29 -39 -113 -200 -109 -210 1 -5 -3 -8 -9 -8 -5 0 -7 -4 -4 -10 3 -5
2 -10 -3 -10 -5 0 -9 -6 -9 -12 0 -7 -15 -51 -33 -98 -38 -103 -77 -248 -75
-284 0 -14 -2 -26 -6 -26 -4 0 -5 -13 -4 -30 1 -16 -1 -30 -5 -30 -4 0 -6 -18
-5 -40 1 -23 -1 -42 -4 -44 -5 -4 -6 -341 -1 -341 1 0 4 -16 6 -35 2 -19 5
-48 8 -65 18 -120 20 -129 40 -201 5 -18 -10 -34 -96 -100 -57 -43 -114 -88
-128 -101 -14 -13 -30 -23 -37 -23 -6 0 -13 -4 -15 -8 -1 -5 -67 -57 -146
-116 -78 -60 -142 -110 -142 -113 0 -2 26 10 58 28 31 18 66 37 77 43 11 6 58
34 105 63 47 28 92 53 100 55 8 2 17 5 20 8 8 8 213 128 231 135 12 4 21 -10
39 -66 14 -40 30 -77 37 -84 6 -7 10 -15 7 -18 -6 -5 33 -85 47 -97 11 -10 74
-125 71 -132 -1 -5 5 -8 13 -8 8 0 14 -4 13 -10 -4 -12 112 -170 123 -170 5 0
9 -5 9 -11 0 -16 171 -185 255 -251 86 -67 172 -125 245 -164 30 -16 57 -32
60 -35 29 -35 396 -161 530 -183 85 -14 140 -19 207 -20 40 -1 73 -3 73 -6 0
-8 210 1 324 14 65 8 303 66 351 87 17 7 32 13 35 13 3 1 11 5 18 9 6 5 12 5
12 1 0 -3 11 1 25 10 14 9 25 14 25 11 0 -4 151 73 250 128 50 28 137 90 181
129 10 10 23 18 28 18 5 0 18 11 29 25 11 14 23 25 26 25 9 0 166 156 166 165
0 4 8 15 18 24 36 33 121 149 170 232 51 86 124 225 128 244 2 6 17 46 34 89
36 92 78 244 74 269 -1 9 1 17 5 17 4 0 7 8 8 18 1 9 2 34 4 55 1 20 5 37 8
37 7 0 9 61 10 235 1 142 -5 218 -25 335 -4 19 -6 43 -6 52 0 10 -4 20 -9 23
-5 4 -7 10 -4 15 3 5 2 18 -4 28 -5 10 -6 23 -2 30 7 12 347 212 361 212 4 0
10 5 12 12 2 6 11 12 19 13 8 2 35 16 59 32 25 17 79 48 120 70 114 61 140 77
140 85 0 6 -97 -34 -255 -107 -38 -18 -158 -72 -265 -120 -107 -48 -200 -92
-207 -97 -14 -11 -14 -11 -53 92 -18 47 -37 90 -41 96 -5 6 -6 14 -2 17 3 4 1
7 -5 7 -7 0 -11 3 -10 8 3 11 -55 119 -96 181 -20 29 -36 57 -36 62 0 5 -4 9
-10 9 -5 0 -10 7 -10 15 0 8 -4 15 -10 15 -5 0 -10 6 -10 14 0 8 -7 16 -15 20
-8 3 -15 11 -15 17 0 6 -8 19 -18 28 -10 9 -35 38 -57 64 -21 27 -65 74 -98
105 -80 76 -86 82 -132 116 -22 16 -51 40 -64 53 -13 13 -30 23 -37 23 -8 0
-14 4 -14 8 0 5 -12 15 -27 23 -16 8 -36 21 -45 29 -20 18 -219 124 -233 125
-5 0 -19 5 -30 11 -25 15 -194 76 -215 78 -9 1 -21 5 -28 10 -6 4 -16 5 -21 1
-5 -3 -13 0 -16 6 -4 5 -13 8 -20 5 -7 -2 -16 -2 -19 2 -4 3 -14 7 -24 9 -32
7 -77 14 -107 18 -16 1 -30 4 -30 4 0 8 -392 21 -399 13z m449 -133 c61 -11
118 -22 128 -22 9 -1 17 -5 17 -10 0 -4 6 -7 13 -6 17 3 69 -12 85 -24 6 -5
12 -7 12 -4 0 8 63 -15 145 -53 146 -68 185 -89 197 -105 4 -5 8 -6 8 -2 0 9
133 -83 138 -95 2 -5 10 -8 17 -8 8 0 19 -8 24 -17 6 -10 11 -15 11 -11 0 3
13 -6 29 -20 111 -104 164 -157 211 -212 30 -34 61 -69 68 -76 7 -8 10 -14 7
-14 -4 0 5 -15 19 -32 39 -49 39 -49 76 -107 19 -29 33 -56 32 -59 -2 -2 0 -8
5 -11 21 -14 133 -276 133 -312 0 -4 -9 -9 -21 -12 -13 -4 -22 0 -26 11 -3 9
-11 31 -18 47 -7 17 -25 62 -41 100 -15 39 -35 84 -45 101 -31 57 -44 78 -52
88 -5 6 -30 45 -57 86 -74 114 -207 259 -322 349 -57 45 -113 90 -124 99 -12
9 -28 18 -35 20 -8 2 -19 8 -24 15 -6 7 -16 13 -24 15 -8 2 -26 11 -40 22 -39
27 -169 89 -175 82 -3 -3 -6 1 -6 8 0 7 -3 11 -6 7 -3 -3 -27 3 -52 14 -25 11
-91 33 -146 50 -104 31 -137 37 -286 55 -64 8 -313 12 -325 5 -5 -3 -32 -7
-60 -8 -45 -3 -90 -9 -90 -13 0 -1 -16 -3 -35 -5 -44 -4 -173 -39 -242 -65
-28 -10 -55 -17 -60 -14 -4 3 -8 1 -8 -5 0 -6 -19 -16 -42 -23 -24 -6 -45 -14
-48 -18 -3 -3 -39 -22 -80 -42 -73 -37 -110 -58 -120 -68 -3 -3 -30 -22 -61
-42 -100 -65 -238 -188 -322 -287 -83 -96 -167 -213 -167 -231 0 -6 -3 -10 -8
-10 -8 0 -13 -9 -54 -91 -43 -88 -97 -224 -123 -316 -31 -107 -35 -126 -51
-253 -7 -63 -11 -343 -5 -355 5 -9 8 -36 12 -113 1 -12 6 -25 10 -28 5 -3 7
-9 4 -14 -3 -5 -1 -27 4 -49 6 -26 5 -43 -2 -50 -17 -17 -27 -13 -27 8 0 11
-4 22 -10 26 -5 3 -7 12 -3 20 3 8 2 23 -2 33 -4 9 -9 26 -10 37 -23 216 -26
274 -21 359 6 96 21 220 32 268 3 13 7 32 8 43 1 11 5 26 10 33 4 7 5 16 2 19
-3 3 -1 12 5 20 6 7 9 13 5 13 -9 0 59 181 109 287 45 94 122 224 137 231 5 2
8 9 8 15 0 7 14 28 30 47 17 19 47 55 67 80 69 81 245 250 261 250 4 0 14 9
22 19 7 11 17 18 22 15 4 -3 8 0 8 5 0 6 6 11 14 11 8 0 16 4 18 8 12 29 296
180 414 220 52 18 106 32 264 69 164 38 450 39 635 2z m-140 -109 c50 -6 124
-17 165 -26 41 -9 80 -17 87 -18 7 -1 16 -5 19 -9 4 -4 17 -7 29 -7 12 0 25
-3 29 -7 3 -4 14 -8 22 -9 9 -1 23 -6 32 -10 9 -4 26 -9 37 -11 63 -12 379
-193 448 -257 15 -14 30 -26 33 -26 3 0 19 -13 36 -30 16 -16 34 -30 39 -30 5
0 9 -7 9 -15 0 -8 3 -15 8 -15 10 0 49 -38 92 -90 19 -23 43 -51 53 -61 9 -11
17 -21 17 -24 0 -3 10 -16 23 -30 30 -35 168 -276 170 -297 1 -10 4 -18 8 -18
4 0 10 -12 15 -27 10 -36 9 -33 22 -66 18 -43 15 -54 -20 -75 -39 -24 -88 -38
-88 -25 0 5 -11 15 -24 22 -17 10 -23 21 -22 42 0 16 3 29 7 29 3 0 6 6 7 13
0 6 3 21 5 32 3 11 8 34 12 50 4 17 12 36 18 42 33 42 -80 -2 -218 -86 -16
-10 -33 -16 -37 -14 -5 2 -8 -1 -8 -8 0 -7 -3 -9 -6 -6 -4 4 -19 -2 -33 -12
-40 -27 -258 -141 -271 -141 -6 0 -10 8 -9 18 1 9 1 34 0 55 l-1 37 -149 0
-148 0 -49 -42 c-44 -38 -87 -82 -120 -121 -6 -7 -17 -24 -24 -38 -7 -13 -16
-26 -20 -29 -21 -14 -94 -193 -83 -203 2 -3 -30 -22 -72 -43 -42 -21 -78 -41
-81 -46 -11 -18 -26 -7 -20 15 4 12 8 27 10 32 2 6 6 18 10 27 4 9 9 25 11 35
2 10 4 19 5 21 2 1 4 7 5 12 1 6 3 11 5 13 1 1 3 9 5 17 1 8 21 68 44 133 29
85 37 117 27 117 -8 0 -17 -7 -20 -16 -4 -9 -9 -14 -13 -10 -3 3 -20 -5 -37
-17 -17 -13 -38 -27 -46 -31 -8 -4 -53 -31 -100 -60 l-85 -52 -3 143 -3 144
-107 -3 -107 -3 0 -209 0 -209 -75 -48 c-41 -26 -81 -48 -87 -48 -7 -1 -13 -5
-13 -10 0 -5 -9 -11 -20 -14 -20 -5 -20 -2 -18 171 l3 177 82 0 81 0 0 105 c1
58 -1 101 -4 95 -2 -6 -98 -9 -266 -7 l-263 3 1 -83 c1 -46 2 -88 3 -95 1 -8
27 -13 79 -15 l77 -3 0 -230 c1 -126 -1 -237 -3 -245 -3 -12 -165 -122 -204
-138 -4 -2 -8 179 -8 402 l0 406 -160 0 c-147 0 -162 -2 -180 -20 -11 -11 -22
-20 -25 -20 -5 0 -88 -84 -112 -114 -7 -8 -13 -20 -13 -26 0 -5 -4 -10 -10
-10 -5 0 -10 -7 -10 -15 0 -8 -4 -15 -8 -15 -4 0 -13 -12 -19 -27 -6 -16 -25
-62 -43 -103 -35 -84 -68 -229 -65 -284 2 -20 0 -38 -4 -40 -4 -3 -6 -41 -6
-86 1 -67 -2 -83 -16 -91 -22 -11 -25 -4 -45 133 -31 211 -2 527 63 698 3 8 7
21 9 28 1 8 6 21 10 30 4 9 9 25 11 35 1 10 14 39 28 65 14 26 25 53 25 59 0
7 4 13 9 13 5 0 11 8 14 18 19 58 168 282 189 282 4 0 8 6 8 14 0 8 14 26 30
39 17 14 30 28 30 31 0 11 38 44 44 38 3 -3 6 2 6 11 0 9 4 17 8 17 4 0 28 18
52 41 25 22 52 47 61 55 9 8 21 14 27 14 7 0 12 4 12 9 0 24 298 191 410 231
36 13 70 27 76 32 6 4 13 5 16 3 3 -3 18 -1 33 5 43 16 202 49 285 59 106 12
250 12 355 1z m1561 -1229 c-3 -4 2 -36 9 -72 45 -214 37 -505 -20 -718 -8
-30 -12 -58 -9 -62 2 -4 0 -10 -6 -14 -6 -4 -8 -11 -5 -16 4 -5 1 -9 -5 -9 -7
0 -10 -7 -6 -15 3 -8 1 -15 -4 -15 -5 0 -7 -7 -4 -15 4 -8 1 -15 -7 -15 -7 0
-10 -3 -6 -6 8 -8 -14 -66 -62 -165 -22 -46 -40 -88 -40 -93 0 -5 -3 -12 -8
-15 -5 -3 -22 -28 -37 -56 -33 -58 -97 -148 -108 -153 -5 -2 -8 -10 -8 -17 0
-8 -11 -22 -25 -33 -14 -11 -25 -23 -25 -26 0 -4 -45 -50 -99 -104 -121 -119
-146 -141 -191 -172 -19 -14 -37 -27 -40 -30 -17 -18 -194 -118 -272 -154
-151 -71 -377 -144 -400 -130 -4 3 -8 1 -8 -3 0 -5 -10 -9 -22 -10 -13 -1 -43
-4 -68 -7 -98 -14 -139 -17 -235 -17 -107 0 -218 7 -275 17 -19 3 -47 6 -62 6
-16 0 -28 4 -28 9 0 5 -6 6 -14 3 -8 -3 -17 0 -21 5 -3 6 -10 9 -14 6 -5 -2
-44 6 -87 19 -282 84 -558 245 -763 446 -56 55 -153 168 -149 174 1 3 -7 13
-20 21 -12 9 -20 20 -17 25 3 4 1 10 -4 12 -13 5 -113 165 -149 241 -18 37
-46 102 -63 144 -29 73 -29 78 -13 90 16 12 20 8 36 -34 11 -27 20 -52 21 -58
1 -5 6 -13 10 -16 5 -3 10 -15 12 -25 2 -10 4 -20 5 -21 2 -2 3 -6 4 -10 6
-32 160 -283 179 -291 4 -2 7 -8 7 -14 0 -5 6 -15 13 -22 7 -8 33 -37 58 -66
24 -29 73 -80 108 -114 35 -33 71 -69 80 -78 8 -10 21 -18 27 -18 7 0 14 -3
16 -7 5 -13 96 -83 106 -83 6 0 12 -4 14 -9 3 -10 234 -141 248 -141 4 0 20
-7 36 -14 15 -8 31 -13 36 -10 4 3 8 0 8 -5 0 -6 6 -11 14 -11 8 0 27 -5 43
-12 33 -13 22 -10 143 -41 178 -47 226 -52 445 -51 181 0 224 4 315 24 58 12
113 23 123 24 9 0 17 4 17 9 0 5 7 7 15 4 8 -4 17 -2 20 2 2 5 25 14 49 20 24
6 55 15 68 20 13 5 26 9 30 10 18 5 179 87 243 124 39 22 98 62 133 89 34 28
62 47 62 43 0 -10 240 233 270 274 14 18 33 42 43 52 9 11 17 24 17 29 0 6 4
10 10 10 5 0 9 3 8 8 -2 7 28 58 47 78 14 15 88 164 123 249 39 92 85 252 77
265 -3 5 -1 10 5 10 6 0 10 8 9 18 -1 9 0 19 1 22 3 7 8 46 15 105 8 67 12
347 6 360 -3 6 -6 28 -7 50 -1 22 -3 41 -4 43 -1 1 -4 11 -5 22 -1 11 -3 21
-5 23 -2 2 -8 36 -13 72 -3 26 23 47 40 33 7 -6 11 -13 9 -17z m-106 -83 c46
-214 38 -476 -20 -695 -12 -43 -23 -85 -25 -93 -2 -8 -4 -17 -6 -20 -1 -3 -3
-9 -4 -15 -1 -5 -8 -23 -15 -40 -15 -35 -14 -32 -24 -67 -5 -16 -13 -28 -19
-28 -6 0 -7 -3 -4 -6 6 -6 -38 -99 -53 -114 -3 -3 -14 -22 -25 -42 -68 -127
-228 -315 -365 -429 -176 -147 -481 -300 -665 -335 -5 -1 -12 -3 -15 -4 -8 -3
-42 -9 -80 -15 -19 -3 -48 -9 -65 -12 -34 -7 -430 -7 -485 0 -19 2 -45 7 -56
11 -12 4 -35 9 -50 11 -79 11 -148 33 -269 82 -60 24 -116 49 -122 55 -7 6
-13 7 -13 4 0 -4 -17 5 -37 19 -21 14 -43 25 -49 25 -7 0 -14 3 -16 8 -2 4
-37 29 -78 56 -180 118 -347 288 -460 466 -19 30 -38 57 -42 58 -5 2 -6 8 -2
13 3 5 0 9 -6 9 -6 0 -9 4 -6 9 3 5 0 14 -8 20 -12 10 -34 57 -99 211 -16 38
-19 68 -7 75 6 3 7 0 4 -9 -5 -14 7 -16 86 -16 l92 0 -7 -87 c-3 -49 -8 -107
-12 -130 -3 -28 -1 -43 6 -43 6 0 11 5 11 10 0 6 6 10 14 10 8 0 21 6 28 13 7
7 18 15 23 16 6 1 47 25 91 52 45 27 87 49 93 49 6 0 11 5 11 10 0 6 7 10 15
10 8 0 15 5 15 11 0 5 3 8 8 6 4 -3 34 13 66 34 33 22 68 39 78 39 10 0 18 4
18 9 0 14 209 129 213 117 2 -6 3 -33 3 -61 -1 -50 -1 -50 34 -55 19 -3 65 -4
103 -2 l67 4 0 124 0 124 48 30 c26 16 53 34 60 40 6 6 12 8 12 5 0 -4 12 2
27 13 73 51 68 62 68 -145 0 -133 3 -187 11 -190 7 -2 118 -5 248 -6 l236 -2
0 86 0 85 -137 1 -138 0 -2 49 -3 49 88 40 c48 22 90 44 94 50 4 5 8 7 8 2 0
-4 27 6 60 23 33 16 61 30 62 30 2 0 3 -84 4 -188 0 -103 3 -198 6 -212 5 -24
9 -25 87 -28 46 -2 88 1 94 7 8 6 12 47 11 120 l-1 110 102 3 c57 2 110 2 118
0 13 -3 16 -19 16 -95 -1 -51 0 -102 0 -114 1 -22 4 -23 106 -23 77 0 105 3
106 13 0 6 0 35 -1 62 -1 28 -4 183 -6 345 -3 284 -2 296 17 308 18 11 19 9
19 -30 0 -45 27 -108 62 -148 29 -32 93 -80 107 -80 6 0 11 -4 11 -10 0 -5 4
-10 10 -10 17 0 180 -83 180 -92 0 -4 5 -8 11 -8 25 0 59 -55 59 -95 0 -64 -9
-82 -51 -100 -33 -15 -44 -16 -83 -5 -45 12 -77 38 -83 65 -2 8 -5 23 -6 33
-3 15 -18 17 -105 20 -100 3 -102 2 -103 -20 -4 -89 29 -178 86 -234 115 -111
390 -93 508 35 66 72 89 222 46 302 -4 9 -5 19 -2 23 3 3 1 6 -6 6 -7 0 -10 4
-7 8 3 5 -4 18 -14 30 -11 12 -20 24 -20 28 0 4 -21 27 -47 51 -43 40 -171
112 -209 117 -41 6 -33 24 26 60 59 35 80 38 80 13 0 -9 27 -11 99 -9 79 3
101 7 105 19 4 9 2 21 -3 27 -4 6 -7 21 -5 34 2 12 1 22 -4 22 -4 0 -8 11 -8
25 -1 14 2 25 8 25 5 0 16 7 24 15 25 24 32 18 44 -37z m-375 13 c-7 -36 -47
-166 -53 -173 -4 -4 -20 7 -37 25 -47 50 -38 123 18 151 45 22 77 21 72 -3z
m-2388 -23 c5 -7 8 -96 8 -198 l0 -185 -30 0 c-27 0 -30 3 -27 29 4 31 1 30
-54 -11 -40 -30 -104 -32 -104 -4 0 56 86 268 124 307 6 6 22 25 36 42 28 35
33 38 47 20z m1813 -6 c0 -7 -21 -21 -65 -41 -5 -2 1 8 14 22 24 26 51 36 51
19z m6 -280 l-1 -107 -109 -3 -108 -3 7 47 c11 79 20 91 87 126 35 17 66 32
70 33 3 0 9 2 12 5 3 3 14 6 24 7 19 1 20 -5 18 -105z m-730 -48 l-25 -69 0
61 c-1 54 2 62 22 71 12 6 23 10 24 8 2 -1 -8 -33 -21 -71z m-1091 -309 c-1
-47 -5 -89 -10 -94 -6 -4 -31 -20 -56 -35 l-46 -26 13 97 c20 147 18 143 62
143 l37 0 0 -85z m-228 -67 c-2 -13 -4 -5 -4 17 -1 22 1 32 4 23 2 -10 2 -28
0 -40z"/>
<path d="M1644 3725 c-42 -17 -64 -51 -64 -98 0 -48 31 -82 91 -97 68 -17 112
-34 116 -46 2 -5 -3 -18 -10 -29 -25 -33 -152 -18 -131 16 6 10 5 10 -44 14
-31 2 -33 1 -27 -24 3 -14 19 -39 35 -55 24 -25 39 -30 88 -34 94 -7 154 35
156 109 1 49 -30 82 -97 100 -82 22 -112 35 -113 49 -1 28 18 40 62 40 32 0
46 -5 58 -21 20 -29 76 -34 76 -7 0 71 -112 119 -196 83z"/>
<path d="M2874 3725 c-27 -11 -83 -66 -85 -83 0 -4 -3 -16 -5 -27 -24 -100 12
-202 80 -230 78 -32 165 -7 204 59 23 39 15 60 -23 62 -19 1 -30 -6 -40 -26
-16 -31 -33 -40 -74 -40 -78 0 -108 140 -44 204 34 34 73 34 107 -1 16 -15 39
-27 57 -28 29 -2 31 0 25 28 -7 33 -56 86 -83 89 -67 6 -92 4 -119 -7z"/>
<path d="M1890 3700 c5 -16 6 -30 3 -30 -3 0 0 -7 7 -15 7 -8 10 -15 6 -15 -3
0 0 -15 7 -32 8 -18 12 -39 10 -45 -3 -7 0 -13 7 -13 6 0 9 -4 6 -8 -3 -5 5
-42 18 -83 22 -74 23 -74 60 -77 24 -2 36 1 32 7 -4 5 -1 13 5 16 5 4 8 13 5
20 -2 7 -2 16 2 19 7 7 13 33 13 56 1 8 3 22 6 30 8 21 10 30 11 69 3 48 18
28 30 -39 34 -185 32 -180 68 -180 34 0 42 7 49 37 6 29 85 295 90 303 2 4
-16 8 -40 8 -36 2 -44 -1 -43 -15 1 -10 -6 -41 -15 -70 -8 -28 -13 -54 -10
-57 3 -3 1 -11 -4 -18 -6 -7 -9 -21 -8 -30 2 -10 -1 -18 -6 -18 -4 0 -6 -8 -2
-17 3 -10 3 -15 -1 -12 -4 4 -9 19 -12 35 -2 16 -11 58 -20 94 -8 36 -17 75
-20 88 -3 17 -11 22 -37 22 -40 0 -51 -8 -55 -40 -3 -34 -9 -65 -12 -65 -1 0
-4 -22 -6 -49 -9 -93 -20 -84 -49 38 l-27 116 -38 0 c-38 0 -38 0 -30 -30z"/>
<path d="M2359 3728 c-1 -2 -3 -82 -3 -179 l-2 -176 43 0 43 -1 0 179 0 179
-40 0 c-22 0 -41 -1 -41 -2z"/>
<path d="M2468 3713 c-9 -38 2 -54 35 -53 72 4 67 14 67 -140 l0 -140 34 0
c19 0 36 6 38 13 2 6 4 69 3 139 l-2 127 51 3 c50 3 51 4 54 36 l3 32 -139 0
c-125 0 -140 -2 -144 -17z"/>
<path d="M3140 3556 l0 -176 35 0 c39 0 37 -4 38 93 l1 58 65 -3 66 -3 0 -70
0 -70 38 -3 37 -3 0 176 0 176 -37 -3 -38 -3 0 -64 0 -64 -53 1 c-28 0 -58 1
-65 1 -9 1 -13 20 -13 64 l0 62 -37 3 -37 3 0 -175z"/>
<path d="M1643 1894 c-114 -47 -137 -225 -41 -316 36 -35 43 -38 99 -38 57 0
62 2 99 42 43 44 51 73 22 80 -25 7 -62 -9 -62 -26 0 -9 -12 -18 -27 -22 -16
-3 -33 -7 -39 -9 -19 -6 -53 24 -67 58 -18 45 -14 97 12 147 4 8 24 19 44 24
28 7 41 6 61 -8 14 -9 26 -23 26 -30 0 -15 52 -17 66 -3 22 22 -69 119 -96
102 -6 -3 -10 -1 -10 5 0 13 -47 10 -87 -6z"/>
<path d="M2015 1900 c-4 -6 -12 -10 -18 -9 -35 4 -75 -28 -96 -76 -15 -33 -21
-154 -8 -162 4 -2 5 -8 3 -12 -3 -4 4 -18 15 -29 11 -12 16 -22 12 -22 -4 0
10 -12 32 -25 47 -29 120 -33 164 -10 35 17 83 73 75 86 -3 5 -1 9 3 9 11 0
11 130 0 148 -5 6 -5 12 -2 12 18 0 -43 64 -73 77 -45 19 -99 25 -107 13z m69
-71 c36 -17 60 -78 52 -134 -12 -75 -68 -109 -130 -80 -69 33 -71 162 -4 209
27 19 48 20 82 5z"/>
<path d="M3072 1888 c-63 -30 -96 -99 -90 -183 9 -106 66 -165 158 -165 51 0
88 21 118 66 27 41 28 63 5 59 -10 -2 -28 -4 -40 -4 -13 -1 -23 -7 -23 -15 0
-42 -79 -52 -116 -14 -50 49 -32 181 27 202 35 12 76 0 91 -27 9 -15 23 -22
46 -23 41 -1 43 22 5 66 -46 55 -114 69 -181 38z"/>
<path d="M2523 1892 c-9 -5 -11 -54 -10 -177 l2 -170 42 -3 41 -3 0 179 -1
178 -31 2 c-17 1 -36 -2 -43 -6z"/>
<path d="M2663 1892 c-8 -5 -11 -59 -12 -177 l0 -170 35 0 34 0 0 120 c0 120
0 120 19 95 11 -13 17 -28 15 -32 -3 -4 0 -8 6 -8 6 0 8 -4 5 -10 -3 -5 -2
-10 4 -10 5 0 13 -10 18 -22 4 -13 23 -48 41 -79 31 -54 34 -56 65 -50 l32 7
0 169 0 170 -32 2 -33 1 0 -116 c0 -132 1 -132 -65 -4 -21 39 -43 72 -48 72
-6 0 -7 3 -4 6 23 24 -49 56 -80 36z"/>
<path d="M2250 1583 l0 -43 43 0 43 0 -2 38 c-1 20 -2 40 -3 43 0 3 -19 6 -41
5 l-40 -1 0 -42z"/>
<path d="M3334 1621 c-8 -5 -10 -38 -5 -73 1 -5 19 -8 41 -8 l40 0 0 43 c0 42
-1 43 -34 44 -18 1 -37 -2 -42 -6z"/>
</g>
</svg>
